HIERARCHY
ROOT hip
{
	OFFSET 0.000000 0.000000 0.000000 
	CHANNELS 6 Xposition Yposition Zposition Xrotation Zrotation Yrotation
	JOINT abdomen
	{
		OFFSET 0.000000 3.402643 0.000000 
		CHANNELS 3 Xrotation Zrotation Yrotation
		JOINT chest
		{
			OFFSET 0.000000 8.438565 -0.680529 
			CHANNELS 3 Xrotation Zrotation Yrotation
			JOINT neck
			{
				OFFSET 0.000000 10.207942 -0.272212 
				CHANNELS 3 Xrotation Zrotation Yrotation
				JOINT head
				{
					OFFSET 0.000000 3.130431 0.000000 
					CHANNELS 3 Xrotation Zrotation Yrotation
					End Site
					{
						OFFSET 0.000000 3.130435 0.000000 
					}
				}
			}
			JOINT lCollar
			{
				OFFSET 3.470700 6.669187 -0.816635 
				CHANNELS 3 Yrotation Zrotation Xrotation
				JOINT lShldr
				{
					OFFSET 3.198488 0.000000 0.000000 
					CHANNELS 3 Zrotation Yrotation Xrotation
					JOINT lForeArm
					{
						OFFSET 10.139888 0.000000 0.000000 
						CHANNELS 3 Yrotation Zrotation Xrotation
						JOINT lHand
						{
							OFFSET 8.370511 0.000000 0.000000 
							CHANNELS 3 Zrotation Yrotation Xrotation
							End Site
							{
								OFFSET 4.083176 0.000000 0.000000 
							}
						}
					}
				}
			}
			JOINT rCollar
			{
				OFFSET -3.470700 6.669187 -0.816635 
				CHANNELS 3 Yrotation Zrotation Xrotation
				JOINT rShldr
				{
					OFFSET -3.198488 0.000000 0.000000 
					CHANNELS 3 Zrotation Yrotation Xrotation
					JOINT rForeArm
					{
						OFFSET -10.139888 0.000000 0.000000 
						CHANNELS 3 Yrotation Zrotation Xrotation
						JOINT rHand
						{
							OFFSET -8.370511 0.000000 0.000000 
							CHANNELS 3 Zrotation Yrotation Xrotation
							End Site
							{
								OFFSET -4.083176 0.000000 0.000000 
							}
						}
					}
				}
			}
		}
	}
	JOINT lThigh
	{
		OFFSET 5.308129 -1.633274 1.361059 
		CHANNELS 3 Xrotation Zrotation Yrotation
		JOINT lShin
		{
			OFFSET -2.041588 -20.007561 0.000000 
			CHANNELS 3 Xrotation Zrotation Yrotation
			JOINT lFoot
			{
				OFFSET 0.000000 -19.190928 -1.224953 
				CHANNELS 3 Xrotation Yrotation Zrotation
				End Site
				{
					OFFSET 0.000000 -2.449906 4.627600 
				}
			}
		}
	}
	JOINT rThigh
	{
		OFFSET -5.308129 -1.633274 1.361059 
		CHANNELS 3 Xrotation Zrotation Yrotation
		JOINT rShin
		{
			OFFSET 2.041588 -20.007561 0.000000 
			CHANNELS 3 Xrotation Zrotation Yrotation
			JOINT rFoot
			{
				OFFSET 0.000000 -19.190928 -1.224953 
				CHANNELS 3 Xrotation Yrotation Zrotation
				End Site
				{
					OFFSET 0.000000 -2.449906 4.627600 
				}
			}
		}
	}
}
MOTION
Frames: 8
Frame Time: 0.033333
0.000000 48.625053 0.000000 -4.638764 -0.360145 0.439377 0.000000 0.000000 0.000000 -0.751967 0.351532 -0.346411 2.053777 -0.546826 -0.199360 5.332028 0.087747 0.180531 0.404413 10.130202 -3.658924 5.505688 9.337340 -15.554381 -6.220294 -5.908460 2.764894 -0.292903 -3.798263 0.799090 0.175839 -9.502065 -3.217108 0.570315 -9.807760 -11.676671 0.127663 5.959398 2.730615 -9.643914 4.405782 -2.920786 7.789204 8.112573 4.465687 13.141501 -3.535270 28.062569 -11.571916 0.849272 -8.285515 7.766608 -6.332635 -5.304445 10.026523 3.579829 -2.917668 -12.024323 -0.440086 4.074970 
0.000000 48.625053 0.000000 -4.668151 -0.506128 0.539373 0.000000 0.000000 0.000000 -0.703161 0.576128 -0.417227 1.959671 -0.805650 -0.079853 5.693295 0.380368 0.107617 0.277103 9.687868 -3.643615 5.704429 9.463938 -15.455868 -6.179707 -5.851684 2.763330 -0.139411 -3.906597 0.077218 0.189299 -9.844706 -3.190136 0.917497 -9.855406 -11.850643 0.126386 5.881294 2.730256 -9.347238 4.230329 -2.720238 7.801940 8.311077 4.492165 13.067741 -3.580371 28.081831 -11.494850 0.885780 -8.743196 7.753347 -6.289060 -5.387143 10.300070 3.660123 -2.609949 -12.230953 -0.443311 4.064507 
0.000000 48.625053 0.000000 -4.511818 -0.379679 0.615897 0.000000 0.000000 0.000000 -0.869166 0.439403 -0.436353 2.083927 -0.552739 -0.223713 5.537099 -0.146275 0.281273 0.186245 10.135614 -3.792073 5.199226 9.484358 -15.697765 -6.442456 -5.776414 2.758928 -0.126236 -3.798208 0.388537 0.069208 -9.545787 -3.372187 0.613882 -9.917119 -11.346157 0.266493 6.073080 2.741091 -9.212916 4.131831 -2.967004 7.708241 8.237102 4.433168 12.984790 -3.606171 27.802713 -11.509660 0.877369 -8.606645 7.672021 -6.364567 -5.388846 10.297749 3.600421 -2.838508 -12.316949 -0.463213 4.131503 
0.000000 48.625053 0.000000 -4.687539 -0.233591 0.526966 0.000000 0.000000 0.000000 -0.722661 0.214827 -0.373803 2.180735 -0.470219 -0.223824 5.390594 -0.253507 0.326730 0.178531 10.134370 -3.586869 4.992568 9.281596 -16.841608 -6.068084 -5.257004 2.726253 -0.630272 -3.896342 1.913838 0.102194 -9.398845 -3.169601 0.720524 -9.855618 -11.830908 0.145852 5.871205 2.728575 -8.994959 4.244568 -2.272692 7.957866 8.105597 4.395338 12.955158 -3.386730 27.681339 -11.466258 0.841849 -8.503856 8.263528 -6.342572 -5.289257 9.468000 3.512382 -3.292609 -12.165248 -0.421836 4.161821 
0.000000 48.625053 0.000000 -4.638750 -0.330944 0.563961 0.000000 0.000000 0.000000 -0.693378 0.419891 -0.405472 1.920037 -0.687389 -0.183693 5.488274 -0.126766 0.202212 0.198848 9.829896 -3.646729 5.357505 9.542495 -15.651178 -6.207536 -5.783473 2.757316 -0.323332 -3.946795 0.459673 0.032952 -9.620697 -3.224075 0.818971 -9.884842 -11.836072 0.282650 5.848788 2.727462 -9.057992 4.161970 -2.763746 7.903302 8.168569 4.424394 12.963030 -3.473929 27.759281 -11.514875 0.860572 -8.539023 8.136993 -6.371286 -5.374056 9.702534 3.588738 -3.017649 -12.197406 -0.455103 4.156178 
0.000000 48.625053 0.000000 -4.541053 -0.233639 0.536134 0.000000 0.000000 0.000000 -0.800792 0.292940 -0.424016 1.939278 -0.659628 -0.111289 5.488274 0.126766 0.325132 0.186661 10.066494 -3.724033 4.958359 9.479040 -16.581421 -6.284230 -5.289548 2.727846 -0.684827 -3.635410 1.136294 0.032933 -9.376208 -3.296694 0.549477 -9.964483 -11.598507 0.410942 5.904620 2.727177 -9.064665 4.259399 -2.813285 7.975637 8.142226 4.460024 12.771579 -3.585152 27.722828 -11.504415 0.863720 -8.548036 8.160141 -6.403914 -5.308650 9.594992 3.512730 -3.020522 -12.333819 -0.447597 4.161426 
0.000000 48.625053 0.000000 -4.511766 -0.262855 0.518788 0.000000 0.000000 0.000000 -0.820326 0.331997 -0.405144 2.016886 -0.645158 -0.148453 5.302732 0.058497 0.279829 0.223505 10.161967 -3.731920 5.215609 9.871386 -14.818376 -6.841404 -6.062860 2.776276 -0.153424 -3.340027 -0.781452 0.144986 -9.441949 -3.303252 0.577364 -10.140882 -11.493661 0.381666 5.914882 2.729586 -9.326643 4.358988 -2.924563 7.981837 8.149693 4.491244 12.865665 -3.613560 27.712633 -11.644715 0.882559 -8.563516 8.151368 -6.414201 -5.319981 9.645373 3.513213 -2.968344 -12.393211 -0.472066 4.182258 
0.000000 48.625053 0.000000 -4.462957 -0.311552 0.522363 0.000000 0.000000 0.000000 -0.800803 0.419881 -0.416025 1.726694 -0.848333 -0.008130 5.624916 0.429107 0.202282 0.278887 9.767064 -3.798091 5.567106 9.849083 -14.956594 -6.643670 -5.992002 2.770371 -0.268832 -3.542495 -0.647334 -0.004840 -9.707722 -3.360632 0.847134 -9.992767 -11.750334 0.331384 5.828434 2.723432 -9.349527 4.406366 -3.032971 7.885947 8.130879 4.488260 12.986381 -3.634036 27.809570 -11.731760 0.861212 -8.380590 8.202791 -6.338209 -5.249132 9.414025 3.455618 -3.232123 -12.191838 -0.477577 4.286220 
